<?xml version="1.0" encoding="UTF-8"?>
<svg version="1.1" xmlns="http://www.w3.org/2000/svg" width="192" height="192">
<path d="M0 0 C1.91083626 -0.01029488 1.91083626 -0.01029488 3.86027527 -0.02079773 C7.34395762 -0.03869984 10.82738766 -0.03756595 14.31110215 -0.03185534 C17.22586323 -0.02875801 20.14057623 -0.03486225 23.05533046 -0.04089409 C29.93666747 -0.05492914 36.81788032 -0.05338766 43.69921875 -0.04199219 C50.78159613 -0.03052242 57.86359432 -0.04456946 64.94592172 -0.07138866 C71.04042745 -0.09359713 77.13481461 -0.10017119 83.2293579 -0.09431225 C86.86314484 -0.09095244 90.49668901 -0.0932917 94.13044167 -0.11056328 C98.18746278 -0.12900558 102.24375436 -0.1147927 106.30078125 -0.09765625 C108.08955185 -0.1121582 108.08955185 -0.1121582 109.91445923 -0.12695312 C117.51662433 -0.0598652 123.83640167 0.89197104 129.96149921 5.66381168 C133.15667327 9.68437608 133.59534943 14.29346804 133.61863708 19.27279663 C133.62861221 20.42222244 133.63858734 21.57164825 133.64886475 22.75590515 C133.64952942 24.00281631 133.65019409 25.24972748 133.65087891 26.53442383 C133.65850748 27.8720699 133.66693617 29.2097116 133.67610168 30.54734802 C133.69798247 34.16932377 133.70683667 37.79121513 133.71192813 41.41324949 C133.71557875 43.67909073 133.7218224 45.94491009 133.72892952 48.21074295 C133.75339991 56.12382218 133.76647108 64.03683605 133.77001953 71.94995117 C133.77365487 79.31299718 133.80355595 86.67562638 133.84542412 94.03854501 C133.88016736 100.37166175 133.89556865 106.70464057 133.89626557 113.03785193 C133.89705689 116.81533013 133.90572865 120.59238316 133.93426323 124.36976242 C133.96051442 127.92406708 133.96261086 131.47759612 133.94660759 135.03195381 C133.9439402 136.94840002 133.96592776 138.86483162 133.98880005 140.78114319 C133.92868311 147.89314145 133.20227812 152.98671438 128.34448242 158.40405273 C123.58856398 162.08988953 118.73129251 162.52734423 112.85501099 162.5377655 C111.76441376 162.54203049 110.67381653 162.54629547 109.5501709 162.5506897 C108.36354858 162.55023651 107.17692627 162.54978333 105.9543457 162.54931641 C104.69689545 162.55267502 103.43944519 162.55603363 102.14389038 162.55949402 C98.70167259 162.56831125 95.25947967 162.57067117 91.81725168 162.5713098 C89.66450016 162.57202158 87.51175493 162.57415832 85.35900497 162.57680702 C77.84260406 162.58605279 70.32622086 162.59014286 62.80981445 162.58935547 C55.81330261 162.58875483 48.81686789 162.59930593 41.82037556 162.61509913 C35.80492483 162.62819195 29.78949925 162.63353864 23.77403438 162.63290006 C20.18507414 162.63264559 16.59618248 162.6354685 13.00723648 162.64607811 C9.00257374 162.65759399 4.99808297 162.65300163 0.9934082 162.64697266 C-0.18916565 162.65259216 -1.3717395 162.65821167 -2.59014893 162.66400146 C-9.57811249 162.63726369 -15.31971593 162.45102193 -21.40551758 158.71655273 C-27.66639558 152.28176145 -27.08577861 144.83403698 -27.04370117 136.35961914 C-27.04895813 135.05632156 -27.05421509 133.75302399 -27.05963135 132.41023254 C-27.07325773 128.85015304 -27.06802512 125.29033562 -27.05849409 121.73025179 C-27.05086991 117.99353132 -27.05795103 114.25683248 -27.06265259 110.52011108 C-27.06810349 104.24407955 -27.06093747 97.96815408 -27.04663086 91.69213867 C-27.0303198 84.4535866 -27.0355842 77.21528827 -27.05211008 69.97674239 C-27.065761 63.74634156 -27.06762662 57.51601676 -27.05979407 51.28560579 C-27.05513547 47.57140029 -27.05444213 43.85731369 -27.06440353 40.143116 C-27.07474557 35.99768515 -27.06037718 31.85268561 -27.04370117 27.70727539 C-27.04977386 26.48828049 -27.05584656 25.26928558 -27.06210327 24.01335144 C-27.01374442 17.50698448 -26.77036013 11.26957596 -23.65551758 5.40405273 C-21.34301758 4.02905273 -21.34301758 4.02905273 -18.65551758 3.40405273 C-17.87110794 2.9044957 -17.0866983 2.40493866 -16.27851868 1.89024353 C-10.89056328 -0.31994893 -5.77003317 -0.02167108 0 0 Z " fill="#012551" transform="translate(42.655517578125,18.595947265625)"/>
<path d="M0 0 C7.63546931 -0.05062418 15.2708955 -0.08570152 22.90649414 -0.10986328 C25.50514341 -0.11993368 28.10378131 -0.13359071 30.70239258 -0.15087891 C34.43313397 -0.17508139 38.16372581 -0.18647266 41.89453125 -0.1953125 C43.06023148 -0.20563507 44.2259317 -0.21595764 45.42695618 -0.22659302 C46.50785019 -0.22674408 47.5887442 -0.22689514 48.70239258 -0.22705078 C49.65503494 -0.231492 50.60767731 -0.23593323 51.58918762 -0.24050903 C54 0 54 0 57 2 C58.20641797 6.75529749 57.22430101 11.25385854 55.0625 15.5625 C51.35234841 21.55987573 46.33862956 27.06284082 39.4375 29 C38.633125 29 37.82875 29 37 29 C37 29.66 37 30.32 37 31 C38.98 31.495 38.98 31.495 41 32 C40.62861962 38.80864031 38.66028391 43.29039547 35 49 C34.443125 49.9075 33.88625 50.815 33.3125 51.75 C26.47151113 58.40609728 18.91489209 59.62737794 9.65182495 59.56648254 C8.22360259 59.54096226 6.79539013 59.5148825 5.3671875 59.48828125 C3.87933551 59.47893572 2.39146796 59.47182785 0.90359497 59.46684265 C-2.97981545 59.44790903 -6.86226502 59.39893066 -10.74530029 59.34332275 C-14.72069304 59.29183199 -18.69624367 59.26926553 -22.671875 59.24414062 C-30.44835091 59.19079464 -38.22403995 59.10565293 -46 59 C-45.13793945 57.02709961 -45.13793945 57.02709961 -44 55 C-41.4925016 54.50737642 -39.15696659 54.56254619 -36.60546875 54.56640625 C-32.19096983 53.60673257 -30.08319488 50.68399611 -27.70239258 46.98266602 C-26.35369492 44.68028781 -25.07399084 42.35122045 -23.8125 40 C-23.37486328 39.2059375 -22.93722656 38.411875 -22.48632812 37.59375 C-19.30975244 31.77406936 -16.92485998 26.62816322 -16 20 C-9.125 20.875 -9.125 20.875 -8 22 C-5.54917045 22.12579108 -3.1280718 22.18864456 -0.67578125 22.203125 C0.06323929 22.20882507 0.80225983 22.21452515 1.56367493 22.22039795 C3.13317426 22.22986503 4.70269362 22.23638868 6.2722168 22.24023438 C8.66035448 22.24989024 11.04761326 22.28087501 13.43554688 22.3125 C14.96093239 22.31903498 16.48632407 22.3242835 18.01171875 22.328125 C19.07612434 22.3466452 19.07612434 22.3466452 20.16203308 22.36553955 C24.85477729 22.34473767 28.01486606 21.46651549 32 19 C35.07810201 15.96333442 35.07810201 15.96333442 36 12 C35.12263184 11.9906543 34.24526367 11.98130859 33.34130859 11.97167969 C30.06432578 11.92748397 26.78861857 11.86579348 23.51220703 11.79248047 C22.09826552 11.76437608 20.68416998 11.74310933 19.27001953 11.72900391 C17.22869616 11.70742544 15.18920401 11.66070914 13.1484375 11.609375 C11.92302246 11.58842773 10.69760742 11.56748047 9.43505859 11.54589844 C5.25826411 10.88212356 3.08684019 9.90088596 0 7 C-0.375 3.25 -0.375 3.25 0 0 Z " fill="#F3F4F5" transform="translate(96,84)"/>
<path d="M0 0 C9.1708584 -0.06955307 18.3416258 -0.12283813 27.51269054 -0.15543652 C31.77133192 -0.17108322 36.02979266 -0.19230318 40.28833008 -0.22631836 C44.39913518 -0.25894752 48.50976668 -0.27686051 52.6206913 -0.28463173 C54.18796839 -0.29016887 55.75523613 -0.30098165 57.32243919 -0.31719017 C59.52009893 -0.33901228 61.71704403 -0.34196501 63.91479492 -0.34057617 C65.16499924 -0.34723801 66.41520355 -0.35389984 67.70329285 -0.36076355 C71.24234772 0.02652047 73.13605075 0.94136985 76 3 C75.82728149 11.80864381 71.73142227 19.65162943 66.0390625 26.28515625 C57.17582772 34.53532143 47.42884525 34.50726294 36 34.6875 C34.54293901 34.72072553 33.08590637 34.75521991 31.62890625 34.79101562 C28.08614526 34.8753193 24.54330765 34.94240852 21 35 C20.61142822 35.7520874 20.22285645 36.5041748 19.82250977 37.27905273 C18.38342724 40.0622267 16.94265987 42.84451974 15.50073242 45.6262207 C14.876354 46.83159762 14.25265346 48.03732592 13.62963867 49.2434082 C12.7353349 50.97438758 11.83840998 52.70401197 10.94140625 54.43359375 C10.40201416 55.47572021 9.86262207 56.51784668 9.30688477 57.59155273 C8 60 8 60 7 61 C4.1883662 61.08861992 1.40141745 61.11522355 -1.41015625 61.09765625 C-2.25219101 61.0962413 -3.09422577 61.09482635 -3.96177673 61.09336853 C-6.66205335 61.08775263 -9.36224828 61.07519748 -12.0625 61.0625 C-13.88867068 61.05748705 -15.71484266 61.05292379 -17.54101562 61.04882812 C-22.02737542 61.03777804 -26.51367384 61.02050279 -31 61 C-30.13574219 59.04077148 -30.13574219 59.04077148 -29 57 C-26.828125 56.34765625 -26.828125 56.34765625 -24.25 56.0625 C-19.20854533 55.21257176 -16.53089682 53.86717271 -13 50 C-12.33932538 48.68397879 -11.7154927 47.3489704 -11.125 46 C-9.25986895 41.80345513 -6.80913343 40.19835841 -2.8046875 38.10546875 C-0.6832278 36.97959496 -0.6832278 36.97959496 1 34 C1.16671852 31.5417707 1.16671852 31.5417707 1 29 C1 27.68 1 26.36 1 25 C5.67166103 22.6279345 9.91593132 22.72042497 15.02734375 22.7265625 C16.80664695 22.70627653 18.58594378 22.6854258 20.36523438 22.6640625 C23.15427039 22.64146529 25.94305435 22.62498835 28.73217773 22.61914062 C31.43518963 22.60959693 34.13708355 22.57580444 36.83984375 22.5390625 C37.66814194 22.54410797 38.49644012 22.54915344 39.34983826 22.55435181 C44.65631302 22.46460732 47.8882861 21.67085008 52 18 C53.41190564 15.39562767 53.41190564 15.39562767 54 13 C53.4097554 12.99413376 52.8195108 12.98826752 52.21138 12.98222351 C46.06288736 12.91824332 39.9149159 12.8338116 33.7668457 12.73754883 C31.47297033 12.70431366 29.17901346 12.67627736 26.88500977 12.65356445 C23.58574727 12.61999326 20.2872307 12.56767465 16.98828125 12.51171875 C15.96414627 12.50532883 14.94001129 12.4989389 13.88484192 12.49235535 C4.89400749 12.30709344 4.89400749 12.30709344 1 9 C-0.4783226 6.04335481 -0.06032783 3.25770263 0 0 Z " fill="#F5F6F7" transform="translate(69,47)"/>
<path d="M0 0 C3.8362715 3.8362715 4.24969618 8.63907142 4.27415466 13.8687439 C4.28412979 15.01816971 4.29410492 16.16759552 4.30438232 17.35185242 C4.305047 18.59876358 4.30571167 19.84567474 4.30639648 21.13037109 C4.31402506 22.46801716 4.32245375 23.80565887 4.33161926 25.14329529 C4.35350004 28.76527103 4.36235425 32.3871624 4.36744571 36.00919676 C4.37109633 38.27503799 4.37733998 40.54085735 4.3844471 42.80669022 C4.40891748 50.71976944 4.42198865 58.63278332 4.42553711 66.54589844 C4.42917245 73.90894444 4.45907353 81.27157365 4.50094169 88.63449228 C4.53568494 94.96760902 4.55108623 101.30058784 4.55178314 107.6337992 C4.55257447 111.41127739 4.56124623 115.18833042 4.58978081 118.96570969 C4.616032 122.52001435 4.61812844 126.07354339 4.60212517 129.62790108 C4.59945778 131.54434729 4.62144533 133.46077888 4.64431763 135.37709045 C4.58420069 142.48908871 3.8577957 147.58266164 -1 153 C-5.75591844 156.68583679 -10.61318992 157.12329149 -16.48947144 157.13371277 C-17.58006866 157.13797775 -18.67066589 157.14224274 -19.79431152 157.14663696 C-20.98093384 157.14618378 -22.16755615 157.14573059 -23.39013672 157.14526367 C-24.64758698 157.14862228 -25.90503723 157.1519809 -27.20059204 157.15544128 C-30.64280983 157.16425851 -34.08500275 157.16661843 -37.52723074 157.16725707 C-39.67998226 157.16796885 -41.83272749 157.17010558 -43.98547745 157.17275429 C-51.50187836 157.18200006 -59.01826156 157.18609012 -66.53466797 157.18530273 C-73.53117982 157.18470209 -80.52761453 157.1952532 -87.52410686 157.2110464 C-93.5395576 157.22413921 -99.55498317 157.2294859 -105.57044804 157.22884732 C-109.15940829 157.22859286 -112.74829994 157.23141577 -116.33724594 157.24202538 C-120.34190868 157.25354126 -124.34639945 157.24894889 -128.35107422 157.24291992 C-129.53364807 157.24853943 -130.71622192 157.25415894 -131.93463135 157.25994873 C-138.92259491 157.23321096 -144.66419835 157.04696919 -150.75 153.3125 C-157.02191691 146.86636317 -156.42522635 139.41179611 -156.37231445 130.92382812 C-156.37596512 129.61731796 -156.37961578 128.3108078 -156.38337708 126.96470642 C-156.39274634 123.39648363 -156.38339428 119.82853706 -156.37004495 116.26033592 C-156.35868763 112.51734782 -156.36284126 108.77437247 -156.36479187 105.03137207 C-156.3656735 98.74694331 -156.35462202 92.46262269 -156.33618164 86.17822266 C-156.31501602 78.92376782 -156.31150494 71.66947132 -156.3177436 64.41499186 C-156.32344835 57.42202074 -156.31777852 50.42910509 -156.30657005 43.43614197 C-156.30193876 40.46661854 -156.30104383 37.4971292 -156.3031559 34.52760315 C-156.30539809 30.37704248 -156.29089464 26.22670137 -156.2746582 22.07617188 C-156.27713562 20.84998642 -156.27961304 19.62380096 -156.28216553 18.36045837 C-156.24574534 12.52372814 -156.01530078 7.5009567 -154 2 C-153.34 2.33 -152.68 2.66 -152 3 C-152.00276538 3.6902231 -152.00553076 4.38044621 -152.00837994 5.09158516 C-152.07465651 21.89256043 -152.1242887 38.69349425 -152.15543652 55.49456978 C-152.17090005 63.61947451 -152.1919797 71.74429193 -152.22631836 79.86914062 C-152.2562365 86.95143438 -152.27557874 94.03366489 -152.28226548 101.11602008 C-152.28617367 104.86548305 -152.29534761 108.61476513 -152.31719017 112.36417007 C-152.34138633 116.55161791 -152.34196844 120.738752 -152.34057617 124.92626953 C-152.351362 126.16704758 -152.36214783 127.40782562 -152.3732605 128.686203 C-152.39763257 136.77611131 -152.39763257 136.77611131 -149 144 C-145.13527929 147.50240315 -141.7741229 148.12466812 -136.66838074 148.14044189 C-135.00919868 148.14900711 -135.00919868 148.14900711 -133.3164978 148.15774536 C-131.49536972 148.15942215 -131.49536972 148.15942215 -129.63745117 148.16113281 C-128.35917953 148.16609772 -127.0809079 148.17106262 -125.76390076 148.17617798 C-122.25552348 148.18929444 -118.74716534 148.19574552 -115.23876739 148.20018864 C-113.04616714 148.20312072 -110.85357212 148.2072258 -108.6609745 148.21169281 C-101.79882748 148.22536608 -94.93669239 148.23503343 -88.07453269 148.2388947 C-80.15696665 148.24337447 -72.23957333 148.2609192 -64.32205981 148.2898953 C-58.19965963 148.31152281 -52.07730801 148.32159956 -45.95487005 148.32293582 C-42.29936127 148.32398313 -38.64401489 148.32987505 -34.98854637 148.34775543 C-30.90916872 148.36732118 -26.83015182 148.36294291 -22.75073242 148.35644531 C-20.93871338 148.37026749 -20.93871338 148.37026749 -19.09008789 148.3843689 C-11.12149551 148.36880265 -11.12149551 148.36880265 -4 145 C-0.49320881 141.13043731 0.1249846 137.77372311 0.12698364 132.66165161 C0.12980347 131.55408508 0.13262329 130.44651855 0.13552856 129.3053894 C0.13350433 128.08973297 0.1314801 126.87407654 0.12939453 125.62158203 C0.13114685 124.3417041 0.13289917 123.06182617 0.13470459 121.74316406 C0.13926804 118.23071171 0.13749358 114.71828869 0.1343255 111.20583582 C0.13179522 107.52995378 0.13414141 103.85407427 0.13571167 100.17819214 C0.13753186 94.00274199 0.13513146 87.8273038 0.13037109 81.65185547 C0.12493358 74.51563085 0.12668802 67.37943483 0.1321975 60.24321091 C0.13673864 54.11573197 0.13737412 47.98826163 0.13475883 41.86078155 C0.13320096 38.20145504 0.13298881 34.54214196 0.13629532 30.88281631 C0.13972582 26.8009294 0.1349679 22.71909158 0.12939453 18.63720703 C0.13243088 16.81979507 0.13243088 16.81979507 0.13552856 14.96566772 C0.13270874 13.85246155 0.12988892 12.73925537 0.12698364 11.59231567 C0.12660662 10.6274077 0.12622959 9.66249973 0.12584114 8.66835213 C0.06693948 5.96257049 0.06693948 5.96257049 -0.57043648 3.21298027 C-0.71219244 2.48269678 -0.8539484 1.75241329 -1 1 C-0.67 0.67 -0.34 0.34 0 0 Z " fill="#000103" transform="translate(172,24)"/>
<path d="M0 0 C-0.66 0.66 -1.32 1.32 -2 2 C5.59 2.33 13.18 2.66 21 3 C21 3.33 21 3.66 21 4 C3.84 4 -13.32 4 -31 4 C-30.80960871 10.68309396 -30.80960871 10.68309396 -27.87817383 12.90551758 C-24.43048222 14.21657038 -21.63747357 14.43324524 -17.94921875 14.51171875 C-17.29041214 14.52966995 -16.63160553 14.54762115 -15.95283508 14.56611633 C-13.86445369 14.61996656 -11.7762974 14.65403108 -9.6875 14.6875 C-8.2649428 14.7206957 -6.84241521 14.75518744 -5.41992188 14.79101562 C-1.94683085 14.87567601 1.52633913 14.9426077 5 15 C5 19.32732989 4.23276988 20.38460579 1.58203125 23.6328125 C-2.64605061 27.2867104 -7.48381581 27.29611883 -12.8203125 27.265625 C-13.93102615 27.26849518 -13.93102615 27.26849518 -15.06417847 27.27142334 C-16.62237897 27.27277921 -18.18059099 27.26912469 -19.73876953 27.26074219 C-22.1242803 27.25000324 -24.50904327 27.260673 -26.89453125 27.2734375 C-28.41145999 27.2721164 -29.92838827 27.26955502 -31.4453125 27.265625 C-32.51412155 27.27169769 -32.51412155 27.27169769 -33.60452271 27.27789307 C-37.29011023 27.24291834 -38.84865307 27.10089795 -42 25 C-43.65549531 24.61500109 -45.3222433 24.27206865 -47 24 C-47 25.98 -47 27.96 -47 30 C-47.33 30 -47.66 30 -48 30 C-50.15275044 21.99445929 -47.04514881 15.77350107 -43.50732422 8.59716797 C-40.7392613 4.08327284 -38.62232673 1.51150796 -33.48144531 -0.109375 C-25.52810718 -1.44980424 -17.33469433 -0.91636163 -9.33642578 -0.25732422 C-6.20770157 -0.01601913 -3.13629282 0.04237427 0 0 Z " fill="#082952" transform="translate(127,80)"/>
<path d="M0 0 C7.26 0 14.52 0 22 0 C23.13463687 5.67318436 23.13463687 5.67318436 21.3125 8.6875 C20.97863281 9.26886719 20.64476563 9.85023437 20.30078125 10.44921875 C18.16106073 13.00017685 15.91344367 13.91292511 12.61816406 14.22705078 C11.32990723 14.21134033 11.32990723 14.21134033 10.015625 14.1953125 C9.08105469 14.18886719 8.14648438 14.18242187 7.18359375 14.17578125 C6.21550781 14.15902344 5.24742188 14.14226562 4.25 14.125 C3.26644531 14.11597656 2.28289062 14.10695312 1.26953125 14.09765625 C-1.15389407 14.07412785 -3.57682222 14.04125368 -6 14 C-4.46371007 8.87903356 -2.4723363 4.94467261 0 0 Z " fill="#0F3059" transform="translate(96,117)"/>
<path d="M0 0 C0.66 0.33 1.32 0.66 2 1 C1.67 45.22 1.34 89.44 1 135 C0.34 135.33 -0.32 135.66 -1 136 C-1.02334486 118.71076793 -1.04098699 101.42154078 -1.05181217 84.13229656 C-1.05697175 76.1048753 -1.06400803 68.07746381 -1.07543945 60.05004883 C-1.0853966 53.05458199 -1.09185589 46.05912225 -1.09408849 39.06364852 C-1.09539384 35.35850606 -1.09846864 31.65338388 -1.10573006 27.94824791 C-1.11376437 23.81534291 -1.11399047 19.68247332 -1.11352539 15.54956055 C-1.11712067 14.31669815 -1.12071594 13.08383575 -1.12442017 11.81361389 C-1.1230455 10.69040741 -1.12167084 9.56720093 -1.12025452 8.40995789 C-1.12117631 7.43193553 -1.1220981 6.45391317 -1.12304783 5.44625378 C-1 3 -1 3 0 0 Z " fill="#000D26" transform="translate(18,26)"/>
<path d="M0 0 C44.22 0 88.44 0 134 0 C134 0.33 134 0.66 134 1 C89.78 1 45.56 1 0 1 C0 0.67 0 0.34 0 0 Z " fill="#003266" transform="translate(29,17)"/>
<path d="M0 0 C-0.66 0.66 -1.32 1.32 -2 2 C5.59 2.33 13.18 2.66 21 3 C21 3.33 21 3.66 21 4 C1.86 4 -17.28 4 -37 4 C-37 3.01 -37 2.02 -37 1 C-32.69502784 0.8563226 -28.39001502 0.71395046 -24.08496094 0.57275391 C-22.62238416 0.52460456 -21.1598188 0.47610718 -19.69726562 0.42724609 C-17.58726913 0.35681706 -15.47723388 0.28766632 -13.3671875 0.21875 C-12.09987793 0.17685547 -10.83256836 0.13496094 -9.52685547 0.09179688 C-6.34901969 0.00908427 -3.17868242 -0.01711269 0 0 Z " fill="#344B68" transform="translate(127,80)"/>
<path d="M0 0 C15.84 0 31.68 0 48 0 C48.495 1.485 48.495 1.485 49 3 C42.34283962 2.90787565 35.68604907 2.80058984 29.02929688 2.68261719 C26.76340318 2.64426729 24.49744735 2.60942517 22.23144531 2.578125 C18.97959133 2.53260473 15.7281674 2.47458924 12.4765625 2.4140625 C11.45881744 2.40251129 10.44107239 2.39096008 9.39248657 2.37905884 C7.98125015 2.3492543 7.98125015 2.3492543 6.54150391 2.31884766 C5.71099518 2.30552399 4.88048645 2.29220032 4.02481079 2.2784729 C2 2 2 2 0 0 Z " fill="#31455E" transform="translate(75,59)"/>
<path d="M0 0 C0.99 0.33 1.98 0.66 3 1 C2.01 1 1.02 1 0 1 C0 0.67 0 0.34 0 0 Z " fill="#000050" transform="translate(166,19)"/>
<path d="M0 0 C0.66 0.33 1.32 0.66 2 1 C1.01 1 0.02 1 -1 1 C-0.67 0.67 -0.34 0.34 0 0 Z " fill="#00509F" transform="translate(24,19)"/>
<path d="M0 0 C3 1 3 1 3 1 Z " fill="#001531" transform="translate(163,18)"/>
<path d="M0 0 C3 1 3 1 3 1 Z " fill="#0031B8" transform="translate(26,18)"/>
<path d="" fill="#000055" transform="translate(0,0)"/>
<path d="" fill="#0055AA" transform="translate(0,0)"/>
<path d="" fill="#000055" transform="translate(0,0)"/>
<path d="" fill="#0055AA" transform="translate(0,0)"/>
</svg>
